<?xml version="1.0" encoding="UTF-8"?>
<svg xmlns="http://www.w3.org/2000/svg" viewBox="0 0 1024 682.66">
  <defs>
    <style>
      .cls-1 {
        fill: #fff;
      }
    </style>
  </defs>
  <g id="Capa_1" data-name="Capa 1">
    <g id="layer2">
      <g id="g8645">
        <path id="rect2140" class="cls-1" d="M104,149.96c6.57-4.94,22.21-10.73,22.21-10.73h244.93l-22.95,52.92-211.91-.45c-12.26,5.82-14.59,15.17-11.18,25.71h212.13s-23.63,54.48-23.63,54.48H101.4c-9.27,5.46-14.93,9.93-10.32,23.72h212.23l-23.72,54.69H34.38s-6.79-1.19-11.78-8.8c-6.03-9.19-2.38-21.47-2.38-21.47l64.45-148.62s11.63-15.69,19.33-21.47Z"/>
        <path id="rect2140-3" class="cls-1" d="M440.9,60.17h0s-92.55,0-92.55,0l-22.65,52.23h92.48s-103.47,237.91-103.47,237.91h54.33l103.47-237.91h23.76c8.71.88,9.61,6.1,7.79,12.84l-99.82,225.92h54.33l35.26-79.8,60.1.25,36.85.3,27.08,135.87s4.8,10.24,9.36,13.99c4.57,3.75,9.68,6.01,9.68,6.01h41.82s-.11-.51-.11-.51l100.1.42,24.28-53.92-135.16-.57h16.1c-14.55-.04-16.07-12.45-20.51-22.1l-21.23-106.51,114.79-105.38-58.87.02-85.28,78.4-32.87.06-62.31-.26,46.41-105.03h97.13s22.65-52.23,22.65-52.23h-96.7s0,0,0,0h-54.33s-37.59,0-37.59,0h0s-54.33,0-54.33,0Z"/>
        <polygon id="rect2140-3-02-8" class="cls-1" points="691.01 112.4 713.66 60.17 690.77 60.17 668.13 112.4 691.01 112.4"/>
        <polygon id="rect2140-3-02-8-0" class="cls-1" points="716.35 112.4 739 60.17 723.27 60.17 700.62 112.4 716.35 112.4"/>
        <polygon id="rect2140-3-02-8-0-3" class="cls-1" points="738.4 112.4 761.05 60.17 750.1 60.17 727.45 112.4 738.4 112.4"/>
        <polygon id="rect2140-3-02-8-6" class="cls-1" points="318.53 60.17 295.89 112.4 318.77 112.4 341.42 60.17 318.53 60.17"/>
        <polygon id="rect2140-3-02-8-0-9" class="cls-1" points="293.19 60.17 270.54 112.4 286.27 112.4 308.92 60.17 293.19 60.17"/>
        <polygon id="rect2140-3-02-8-0-3-4" class="cls-1" points="271.14 60.17 248.49 112.4 259.45 112.4 282.1 60.17 271.14 60.17"/>
        <polygon id="rect2140-3-02-8-4" class="cls-1" points="808.5 427.77 832.4 373.2 809.52 373.2 785.62 427.77 808.5 427.77"/>
        <polygon id="rect2140-3-02-8-0-1" class="cls-1" points="833.84 427.77 857.74 373.2 842.01 373.2 818.12 427.77 833.84 427.77"/>
        <polygon id="rect2140-3-02-8-0-3-0" class="cls-1" points="855.9 427.77 879.8 373.2 868.84 373.2 844.94 427.77 855.9 427.77"/>
      </g>
    </g>
  </g>
  <g id="Capa_2" data-name="Capa 2">
    <path class="cls-1" d="M570.97,537.65c103.87-5.5,212.09-28.65,304.37-77.46,30.89-16.69,59.35-37.49,83.65-62.82,5.83-5.4,11.08-11.4,15.88-17.77,33.22-44.5,33.57-96.3,4.38-143.11-9.22-14.67-20.53-28.16-32.65-40.55-24.95-24.61-54.81-43.8-85.93-59.74-23.55-11.81-47.93-22.09-73.12-29.89,62.33,19.63,125.16,48.69,171.45,95.95,36.21,37.14,57.71,81.56,47.94,134.33-9.68,57.04-47.84,100.56-93.76,133.35-68.25,48.37-150.34,71.93-231.68,87.03-33.85,6.11-68.03,10.46-102.37,12.74-2.36.14-4.58.27-7.14.37l-1.04-32.44h0Z"/>
  </g>
  <g id="Capa_3" data-name="Capa 3">
    <path class="cls-1" d="M579.44,313.53c-2.46,9.15-11.1,15.04-19.47,17.91-18.33,6.73-43.61,5.88-59.63-6.09-7.68-6.46-10.57-16.33-8.07-26.19,1.56-7.55,7.95-12.66,14.29-16.15,9.07-5.04,19.14-6.22,29.15-6.14,14.66.02,30.28,4.23,40.51,15.54,4.85,5.29,4.92,14.67,3.23,21.11h0ZM571.02,313.53c-2.45-3.7-7.48-.68-10.9-1.7-8.04-1.35-15.79-2.52-24.42-2.5-6.06.09-12.28,1.39-18.19,2,0,0-4.12.51-4.12.51-1.36.25-2.72.29-4.12.05-1.53-.24-3.46-.67-5.21-.54-3.73.01-5.75,3.64-4.36,6.85,2.44,4.97,7.84,8.01,12.92,10.19,14.41,5.57,37.95,5.61,51.29-2.68,3.97-2.46,9.65-7.08,7.11-12.17h0Z"/>
  </g>
  <g id="Capa_4" data-name="Capa 4">
    <g>
      <path class="cls-1" d="M60.79,483.11l47.84-65.57,9.89,7.21,2.98,51.85,50.28-12.99,9.89,7.21-47.84,65.57-7.21-5.26,41.72-57.19-55.28,14.23-3.32-56.98-41.72,57.19-7.21-5.26Z"/>
      <path class="cls-1" d="M182.96,557.91c-1.45-1.85-2.34-3.96-2.69-6.31-.35-2.35-.07-4.68.83-7l24.57-63.01,8.32,3.24-24.57,63.01c-.44,1.12-.42,2.24.05,3.35.47,1.11,1.26,1.88,2.35,2.31l49.3,19.22c1.09.43,2.19.39,3.3-.11,1.1-.5,1.87-1.31,2.31-2.43l24.57-63.01,8.32,3.24-24.57,63.02c-.9,2.31-2.28,4.21-4.12,5.71-1.85,1.5-3.93,2.44-6.25,2.83-2.32.39-4.61.14-6.87-.74l-49.3-19.22c-2.26-.88-4.11-2.25-5.56-4.1Z"/>
      <path class="cls-1" d="M301.26,599.85c-2.37-.51-4.42-1.56-6.14-3.17-1.72-1.6-2.94-3.53-3.66-5.8-.71-2.27-.81-4.61-.29-7.04l.66-3.08,8.73,1.88-.66,3.09c-.25,1.18-.06,2.28.59,3.3.64,1.02,1.54,1.66,2.69,1.9l51.73,11.13c1.15.25,2.23.04,3.24-.63,1.01-.67,1.64-1.59,1.89-2.76l3.82-17.74c.25-1.17.05-2.26-.6-3.24-.65-.99-1.55-1.6-2.7-1.85l-51.73-11.13c-2.37-.51-4.42-1.58-6.13-3.22-1.72-1.64-2.94-3.57-3.66-5.8-.72-2.23-.82-4.56-.3-6.98l3.82-17.74c.52-2.42,1.57-4.52,3.16-6.3,1.58-1.77,3.49-3.04,5.72-3.79,2.23-.75,4.53-.87,6.9-.36l51.73,11.13c2.37.51,4.42,1.57,6.14,3.17,1.72,1.6,2.94,3.54,3.66,5.8.71,2.27.81,4.61.29,7.04l-.66,3.09-8.73-1.88.66-3.09c.25-1.17.06-2.27-.59-3.3-.65-1.02-1.54-1.66-2.69-1.91l-51.73-11.13c-1.15-.25-2.23-.04-3.24.63-1.01.67-1.64,1.59-1.89,2.76l-3.82,17.74c-.25,1.18-.05,2.26.6,3.24.65.99,1.55,1.6,2.7,1.85l51.73,11.13c2.37.51,4.41,1.58,6.13,3.22,1.71,1.64,2.93,3.57,3.66,5.8.72,2.23.82,4.56.3,6.98l-3.82,17.74c-.52,2.42-1.58,4.52-3.16,6.3-1.58,1.77-3.49,3.04-5.72,3.79-2.23.75-4.53.87-6.9.36l-51.73-11.13Z"/>
      <path class="cls-1" d="M401.58,618.11l9.91-80.56,8.97,1.1-9.91,80.56-8.97-1.1Z"/>
      <path class="cls-1" d="M459.37,624.06c-2.42-.1-4.62-.79-6.59-2.08-1.97-1.28-3.5-2.98-4.59-5.1-1.09-2.11-1.58-4.41-1.48-6.89l2.23-54.06c.1-2.48.78-4.72,2.04-6.74,1.26-2.02,2.92-3.58,4.99-4.7,2.07-1.12,4.32-1.63,6.74-1.53l65.87,2.72-.38,9.12-65.87-2.72c-1.18-.05-2.2.34-3.08,1.17-.88.83-1.35,1.84-1.39,3.04l-2.23,54.06c-.05,1.2.33,2.25,1.14,3.15.81.9,1.8,1.37,2.98,1.42l65.87,2.72-.38,9.12-65.87-2.72Z"/>
    </g>
  </g>
</svg>